<svg xmlns="http://www.w3.org/2000/svg" width="538" height="348" viewBox="0 0 538 348" version="1.1"><path d="M 32.474 98 C 32.474 137.875, 32.598 154.188, 32.750 134.250 C 32.901 114.313, 32.901 81.688, 32.750 61.750 C 32.598 41.813, 32.474 58.125, 32.474 98 M 198.474 98 C 198.474 137.875, 198.598 154.188, 198.750 134.250 C 198.901 114.313, 198.901 81.688, 198.750 61.750 C 198.598 41.813, 198.474 58.125, 198.474 98 M 507.474 98 C 507.474 137.875, 507.598 154.188, 507.750 134.250 C 507.901 114.313, 507.901 81.688, 507.750 61.750 C 507.598 41.813, 507.474 58.125, 507.474 98 M 261 66.175 C 259.075 66.722, 256.033 68.282, 254.241 69.643 C 252.448 71.003, 250.141 73.777, 249.114 75.808 C 248.087 77.839, 246.741 81.885, 246.123 84.799 C 245.505 87.714, 245 93.204, 245 97 C 245 100.796, 245.505 106.286, 246.123 109.201 C 246.741 112.115, 248.050 116.075, 249.032 118 C 250.013 119.925, 252.096 122.709, 253.658 124.186 C 255.221 125.664, 257.767 127.351, 259.315 127.936 C 260.863 128.521, 265.138 128.990, 268.815 128.978 C 273.207 128.964, 276.935 128.304, 279.684 127.057 C 282.223 125.904, 284.904 123.591, 286.503 121.176 C 287.952 118.986, 289.781 115.054, 290.569 112.438 C 291.423 109.598, 292 103.389, 292 97.023 C 292 90.133, 291.430 84.445, 290.389 80.939 C 289.283 77.214, 287.481 74.218, 284.636 71.373 C 282.205 68.942, 278.842 66.772, 276.497 66.121 C 274.299 65.510, 270.700 65.049, 268.500 65.096 C 266.300 65.142, 262.925 65.628, 261 66.175 M 66 72 C 66 77.111, 66.267 78, 67.800 78 C 69.364 78, 70.181 81.235, 74.053 102.750 L 78.506 127.500 87.163 127.788 L 95.821 128.075 99.602 112.288 L 103.384 96.500 106.765 111 C 108.624 118.975, 110.324 126.063, 110.541 126.750 C 110.817 127.620, 113.505 128, 119.386 128 L 127.834 128 128.796 123.250 C 129.325 120.638, 131.499 109.541, 133.628 98.591 C 136.761 82.469, 137.831 78.596, 139.249 78.225 C 140.667 77.854, 141 76.647, 141 71.883 L 141 66 131.450 66 L 121.900 66 122.200 71.750 C 122.466 76.845, 122.757 77.536, 124.752 77.820 C 126.493 78.067, 126.891 78.633, 126.506 80.320 C 126.233 81.519, 125.066 87.900, 123.913 94.500 C 122.761 101.100, 121.714 106.607, 121.588 106.738 C 121.461 106.868, 119.407 97.756, 117.022 86.488 L 112.685 66 106.983 66 L 101.281 66 98.546 77.750 C 97.042 84.213, 94.821 93.521, 93.610 98.436 L 91.408 107.371 89.616 94.936 C 88.630 88.096, 87.589 81.487, 87.303 80.250 C 86.890 78.464, 87.218 78, 88.892 78 C 90.802 78, 91 77.436, 91 72 L 91 66 78.500 66 L 66 66 66 72 M 410 72 C 410 77.333, 410.222 78, 412 78 C 413.932 78, 414 78.667, 414 97.500 C 414 116.333, 413.932 117, 412 117 C 410.242 117, 410 117.667, 410 122.500 L 410 128 422.552 128 L 435.105 128 434.802 122.750 C 434.539 118.176, 434.210 117.459, 432.250 117.180 C 430.164 116.884, 430 116.356, 430 109.930 C 430 103.001, 430.001 103, 432.809 103 C 434.354 103, 436.491 103.638, 437.559 104.418 C 439.238 105.644, 439.546 107.333, 439.838 116.918 L 440.177 128 450.641 128 L 461.105 128 460.802 122.750 C 460.539 118.176, 460.210 117.459, 458.250 117.180 C 456.196 116.889, 455.999 116.323, 455.985 110.680 C 455.977 107.281, 455.415 103.419, 454.735 102.098 C 454.056 100.777, 452.600 99.202, 451.500 98.598 C 450.400 97.994, 449.373 97.448, 449.217 97.383 C 449.061 97.319, 450.483 95.717, 452.377 93.823 C 454.939 91.261, 456.004 89.153, 456.539 85.590 C 456.962 82.767, 456.803 79.285, 456.151 77.109 C 455.542 75.078, 453.797 72.240, 452.272 70.802 C 450.748 69.363, 447.700 67.697, 445.500 67.099 C 443.300 66.501, 434.413 66.009, 425.750 66.006 L 410 66 410 72 M 264.872 79.650 C 263.886 80.836, 263.408 85.371, 263.174 95.761 C 262.959 105.328, 263.249 111.187, 264.032 113.077 C 264.683 114.648, 266.050 116.198, 267.070 116.522 C 268.090 116.846, 269.836 116.623, 270.950 116.027 C 272.065 115.430, 273.319 113.718, 273.738 112.221 C 274.157 110.725, 274.478 103.597, 274.452 96.383 C 274.413 85.703, 274.084 82.776, 272.679 80.633 C 271.624 79.023, 270.039 78, 268.599 78 C 267.304 78, 265.627 78.743, 264.872 79.650 M 430 86 L 430 94 432.929 94 C 434.539 94, 436.564 93.293, 437.429 92.429 C 438.391 91.466, 439 89.115, 439 86.363 C 439 83.891, 438.534 80.998, 437.965 79.934 C 437.247 78.593, 435.867 78, 433.465 78 L 430 78 430 86 M 32.474 253 C 32.474 292.875, 32.598 309.188, 32.750 289.250 C 32.901 269.313, 32.901 236.688, 32.750 216.750 C 32.598 196.813, 32.474 213.125, 32.474 253 M 507.474 253 C 507.474 292.875, 507.598 309.188, 507.750 289.250 C 507.901 269.313, 507.901 236.688, 507.750 216.750 C 507.598 196.813, 507.474 213.125, 507.474 253 M 80 227 C 80 232.333, 80.222 233, 82 233 C 83.932 233, 84 233.667, 84 252.500 C 84 271.333, 83.932 272, 82 272 C 80.239 272, 80 272.667, 80 277.584 L 80 283.169 96.917 282.834 C 113.834 282.500, 113.834 282.500, 118.152 279.463 C 120.527 277.792, 123.485 274.920, 124.725 273.080 C 125.965 271.241, 127.450 268.107, 128.025 266.118 C 128.600 264.128, 129.343 259.486, 129.676 255.803 C 130.028 251.906, 129.765 246.482, 129.046 242.828 C 128.367 239.375, 126.980 234.921, 125.964 232.930 C 124.949 230.939, 122.552 227.936, 120.638 226.255 C 118.498 224.377, 115.182 222.776, 112.030 222.100 C 109.209 221.495, 100.849 221, 93.451 221 L 80 221 80 227 M 248.406 222.386 C 248.113 223.148, 248.015 225.735, 248.187 228.136 C 248.449 231.785, 248.868 232.552, 250.750 232.820 C 252.995 233.138, 253 233.183, 253 252.500 C 253 271.817, 252.995 271.862, 250.750 272.180 C 248.790 272.459, 248.461 273.176, 248.198 277.750 L 247.895 283 269.448 283 L 291 283 291 273 L 291 263 284.500 263 L 278 263 278 267.500 C 278 272, 278 272, 274 272 L 270 272 270 252.617 C 270 234.074, 270.087 233.211, 272 232.710 C 273.699 232.266, 274 231.346, 274 226.594 L 274 221 261.469 221 C 251.712 221, 248.819 221.307, 248.406 222.386 M 414 227 C 414 232.333, 414.222 233, 416 233 C 417.932 233, 418 233.667, 418 252.500 C 418 271.333, 417.932 272, 416 272 C 414.242 272, 414 272.667, 414 277.500 L 414 283 435 283 L 456 283 456 273 L 456 263 450 263 L 444 263 444 267.500 L 444 272 439.500 272 L 435 272 435 264.500 L 435 257 439.500 257 L 444 257 444 252 L 444 247 439.500 247 L 435 247 435 240 L 435 233 439.500 233 L 444 233 444 237.500 L 444 242 450 242 L 456 242 456 231.500 L 456 221 435 221 L 414 221 414 227 M 101 252.500 C 101 272, 101 272, 103.277 272 C 104.530 272, 106.538 271.312, 107.739 270.471 C 108.940 269.629, 110.387 267.267, 110.956 265.221 C 111.524 263.174, 111.989 257.450, 111.989 252.500 C 111.989 247.550, 111.524 241.828, 110.957 239.784 C 110.389 237.740, 109.234 235.377, 108.391 234.534 C 107.547 233.690, 105.539 233, 103.929 233 L 101 233 101 252.500" stroke="none" fill="#f8f9f8" fill-rule="evenodd"/><path d="M 33 98 L 33 170 105 170 L 177 170 177 98 L 177 26 105 26 L 33 26 33 98 M 199 98 L 199 170 271 170 L 343 170 343 98 L 343 26 271 26 L 199 26 199 98 M 363 98 L 363 170 435 170 L 507 170 507 98 L 507 26 435 26 L 363 26 363 98 M 261 66.175 C 259.075 66.722, 256.033 68.282, 254.241 69.643 C 252.448 71.003, 250.141 73.777, 249.114 75.808 C 248.087 77.839, 246.741 81.885, 246.123 84.799 C 245.505 87.714, 245 93.204, 245 97 C 245 100.796, 245.505 106.286, 246.123 109.201 C 246.741 112.115, 248.050 116.075, 249.032 118 C 250.013 119.925, 252.096 122.709, 253.658 124.186 C 255.221 125.664, 257.767 127.351, 259.315 127.936 C 260.863 128.521, 265.138 128.990, 268.815 128.978 C 273.207 128.964, 276.935 128.304, 279.684 127.057 C 282.223 125.904, 284.904 123.591, 286.503 121.176 C 287.952 118.986, 289.781 115.054, 290.569 112.438 C 291.423 109.598, 292 103.389, 292 97.023 C 292 90.133, 291.430 84.445, 290.389 80.939 C 289.283 77.214, 287.481 74.218, 284.636 71.373 C 282.205 68.942, 278.842 66.772, 276.497 66.121 C 274.299 65.510, 270.700 65.049, 268.500 65.096 C 266.300 65.142, 262.925 65.628, 261 66.175 M 66 72 C 66 77.111, 66.267 78, 67.800 78 C 69.364 78, 70.181 81.235, 74.053 102.750 L 78.506 127.500 87.163 127.788 L 95.821 128.075 99.602 112.288 L 103.384 96.500 106.765 111 C 108.624 118.975, 110.324 126.063, 110.541 126.750 C 110.817 127.620, 113.505 128, 119.386 128 L 127.834 128 128.796 123.250 C 129.325 120.638, 131.499 109.541, 133.628 98.591 C 136.761 82.469, 137.831 78.596, 139.249 78.225 C 140.667 77.854, 141 76.647, 141 71.883 L 141 66 131.450 66 L 121.900 66 122.200 71.750 C 122.466 76.845, 122.757 77.536, 124.752 77.820 C 126.493 78.067, 126.891 78.633, 126.506 80.320 C 126.233 81.519, 125.066 87.900, 123.913 94.500 C 122.761 101.100, 121.714 106.607, 121.588 106.738 C 121.461 106.868, 119.407 97.756, 117.022 86.488 L 112.685 66 106.983 66 L 101.281 66 98.546 77.750 C 97.042 84.213, 94.821 93.521, 93.610 98.436 L 91.408 107.371 89.616 94.936 C 88.630 88.096, 87.589 81.487, 87.303 80.250 C 86.890 78.464, 87.218 78, 88.892 78 C 90.802 78, 91 77.436, 91 72 L 91 66 78.500 66 L 66 66 66 72 M 410 72 C 410 77.333, 410.222 78, 412 78 C 413.932 78, 414 78.667, 414 97.500 C 414 116.333, 413.932 117, 412 117 C 410.242 117, 410 117.667, 410 122.500 L 410 128 422.552 128 L 435.105 128 434.802 122.750 C 434.539 118.176, 434.210 117.459, 432.250 117.180 C 430.164 116.884, 430 116.356, 430 109.930 C 430 103.001, 430.001 103, 432.809 103 C 434.354 103, 436.491 103.638, 437.559 104.418 C 439.238 105.644, 439.546 107.333, 439.838 116.918 L 440.177 128 450.641 128 L 461.105 128 460.802 122.750 C 460.539 118.176, 460.210 117.459, 458.250 117.180 C 456.196 116.889, 455.999 116.323, 455.985 110.680 C 455.977 107.281, 455.415 103.419, 454.735 102.098 C 454.056 100.777, 452.600 99.202, 451.500 98.598 C 450.400 97.994, 449.373 97.448, 449.217 97.383 C 449.061 97.319, 450.483 95.717, 452.377 93.823 C 454.939 91.261, 456.004 89.153, 456.539 85.590 C 456.962 82.767, 456.803 79.285, 456.151 77.109 C 455.542 75.078, 453.797 72.240, 452.272 70.802 C 450.748 69.363, 447.700 67.697, 445.500 67.099 C 443.300 66.501, 434.413 66.009, 425.750 66.006 L 410 66 410 72 M 264.872 79.650 C 263.886 80.836, 263.408 85.371, 263.174 95.761 C 262.959 105.328, 263.249 111.187, 264.032 113.077 C 264.683 114.648, 266.050 116.198, 267.070 116.522 C 268.090 116.846, 269.836 116.623, 270.950 116.027 C 272.065 115.430, 273.319 113.718, 273.738 112.221 C 274.157 110.725, 274.478 103.597, 274.452 96.383 C 274.413 85.703, 274.084 82.776, 272.679 80.633 C 271.624 79.023, 270.039 78, 268.599 78 C 267.304 78, 265.627 78.743, 264.872 79.650 M 430 86 L 430 94 432.929 94 C 434.539 94, 436.564 93.293, 437.429 92.429 C 438.391 91.466, 439 89.115, 439 86.363 C 439 83.891, 438.534 80.998, 437.965 79.934 C 437.247 78.593, 435.867 78, 433.465 78 L 430 78 430 86 M 33 253 L 33 325 105 325 L 177 325 177 253 L 177 181 105 181 L 33 181 33 253 M 198 253 L 198 325 270 325 L 342 325 342 253 L 342 181 270 181 L 198 181 198 253 M 363 253 L 363 325 435 325 L 507 325 507 253 L 507 181 435 181 L 363 181 363 253 M 80 227 C 80 232.333, 80.222 233, 82 233 C 83.932 233, 84 233.667, 84 252.500 C 84 271.333, 83.932 272, 82 272 C 80.239 272, 80 272.667, 80 277.584 L 80 283.169 96.917 282.834 C 113.834 282.500, 113.834 282.500, 118.152 279.463 C 120.527 277.792, 123.485 274.920, 124.725 273.080 C 125.965 271.241, 127.450 268.107, 128.025 266.118 C 128.600 264.128, 129.343 259.486, 129.676 255.803 C 130.028 251.906, 129.765 246.482, 129.046 242.828 C 128.367 239.375, 126.980 234.921, 125.964 232.930 C 124.949 230.939, 122.552 227.936, 120.638 226.255 C 118.498 224.377, 115.182 222.776, 112.030 222.100 C 109.209 221.495, 100.849 221, 93.451 221 L 80 221 80 227 M 248.406 222.386 C 248.113 223.148, 248.015 225.735, 248.187 228.136 C 248.449 231.785, 248.868 232.552, 250.750 232.820 C 252.995 233.138, 253 233.183, 253 252.500 C 253 271.817, 252.995 271.862, 250.750 272.180 C 248.790 272.459, 248.461 273.176, 248.198 277.750 L 247.895 283 269.448 283 L 291 283 291 273 L 291 263 284.500 263 L 278 263 278 267.500 C 278 272, 278 272, 274 272 L 270 272 270 252.617 C 270 234.074, 270.087 233.211, 272 232.710 C 273.699 232.266, 274 231.346, 274 226.594 L 274 221 261.469 221 C 251.712 221, 248.819 221.307, 248.406 222.386 M 414 227 C 414 232.333, 414.222 233, 416 233 C 417.932 233, 418 233.667, 418 252.500 C 418 271.333, 417.932 272, 416 272 C 414.242 272, 414 272.667, 414 277.500 L 414 283 435 283 L 456 283 456 273 L 456 263 450 263 L 444 263 444 267.500 L 444 272 439.500 272 L 435 272 435 264.500 L 435 257 439.500 257 L 444 257 444 252 L 444 247 439.500 247 L 435 247 435 240 L 435 233 439.500 233 L 444 233 444 237.500 L 444 242 450 242 L 456 242 456 231.500 L 456 221 435 221 L 414 221 414 227 M 101 252.500 C 101 272, 101 272, 103.277 272 C 104.530 272, 106.538 271.312, 107.739 270.471 C 108.940 269.629, 110.387 267.267, 110.956 265.221 C 111.524 263.174, 111.989 257.450, 111.989 252.500 C 111.989 247.550, 111.524 241.828, 110.957 239.784 C 110.389 237.740, 109.234 235.377, 108.391 234.534 C 107.547 233.690, 105.539 233, 103.929 233 L 101 233 101 252.500" stroke="none" fill="#6cac64" fill-rule="evenodd"/></svg>